<svg width="24" height="24" viewBox="2 2 20 20" fill="none" xmlns="http://www.w3.org/2000/svg">
<path d="M9.06199 13.0772C9.06199 15.002 8.28119 16.752 6.86635 18.3754H9.84169L9.84169 19.9536H5.31489V18.4482C6.70253 16.752 7.23949 15.3681 7.23949 13.0772L9.06199 13.0772Z" fill="currentColor"/>
<path d="M14.938 13.0772C14.938 15.002 15.7188 16.752 17.1337 18.3754H14.1583V19.9536H18.6851V18.4482C17.2975 16.752 16.7605 15.3681 16.7605 13.0772H14.938Z" fill="currentColor"/>
<path d="M9.06199 10.9228C9.06199 8.99797 8.2812 7.24798 6.86636 5.62455L9.84169 5.62455V4.04639H5.3149V5.55182C6.70253 7.24798 7.2395 8.63187 7.2395 10.9228L9.06199 10.9228Z" fill="currentColor"/>
<path d="M14.938 10.9228C14.938 8.99797 15.7188 7.24798 17.1336 5.62455L14.1583 5.62455L14.1583 4.04639L18.6851 4.04639V5.55182C17.2975 7.24798 16.7605 8.63187 16.7605 10.9228H14.938Z" fill="currentColor"/>
</svg>